HIERARCHY
ROOT joint_Root
{
	OFFSET 0.0 0.0 0.0
	CHANNELS 6 Xposition Yposition Zposition Zrotation Xrotation Yrotation 
	JOINT Hips
	{
		OFFSET -0.726466 93.3139 -2.00062
		CHANNELS 6 Xposition Yposition Zposition Zrotation Xrotation Yrotation 
		JOINT Spine
		{
			OFFSET 15.7357 0.0 0.0
			CHANNELS 6 Xposition Yposition Zposition Zrotation Xrotation Yrotation 
			JOINT Chest
			{
				OFFSET 8.98455 -0.406207 0.0
				CHANNELS 6 Xposition Yposition Zposition Zrotation Xrotation Yrotation 
				JOINT Neck
				{
					OFFSET 16.3773 0.0 0.0
					CHANNELS 6 Xposition Yposition Zposition Zrotation Xrotation Yrotation 
					JOINT Head
					{
						OFFSET 6.45672 0.0 0.0
						CHANNELS 6 Xposition Yposition Zposition Zrotation Xrotation Yrotation 
						End Site
						{
							OFFSET 0.0 0.0 0.0
						}
					}
				}
				JOINT Shoulder_L
				{
					OFFSET 12.9942 -0.242716 4.98039
					CHANNELS 6 Xposition Yposition Zposition Zrotation Xrotation Yrotation 
					JOINT UpperArm_L
					{
						OFFSET 5.34809 0.0 0.0
						CHANNELS 6 Xposition Yposition Zposition Zrotation Xrotation Yrotation 
						JOINT LowerArm_L
						{
							OFFSET 24.3286 1.87007e-05 0.0
							CHANNELS 6 Xposition Yposition Zposition Zrotation Xrotation Yrotation 
							JOINT Hand_L
							{
								OFFSET 22.2916 0.0 0.0
								CHANNELS 6 Xposition Yposition Zposition Zrotation Xrotation Yrotation 
								End Site
								{
									OFFSET 0.0 0.0 0.0
								}
							}
						}
					}
				}
				JOINT Shoulder_R
				{
					OFFSET 12.9945 -0.242716 -4.98039
					CHANNELS 6 Xposition Yposition Zposition Zrotation Xrotation Yrotation 
					JOINT UpperArm_R
					{
						OFFSET -5.34813 0.0 0.0
						CHANNELS 6 Xposition Yposition Zposition Zrotation Xrotation Yrotation 
						JOINT LowerArm_R
						{
							OFFSET -24.3289 0.000322201 0.0
							CHANNELS 6 Xposition Yposition Zposition Zrotation Xrotation Yrotation 
							JOINT Hand_R
							{
								OFFSET -22.2915 -0.000108084 0.0
								CHANNELS 6 Xposition Yposition Zposition Zrotation Xrotation Yrotation 
								End Site
								{
									OFFSET 0.0 0.0 0.0
								}
							}
						}
					}
				}
			}
		}
		JOINT UpperLeg_L
		{
			OFFSET -2.19248 -6.46944 0.0
			CHANNELS 6 Xposition Yposition Zposition Zrotation Xrotation Yrotation 
			JOINT LowerLeg_L
			{
				OFFSET 39.0811 0.0 -1.23785e-05
				CHANNELS 6 Xposition Yposition Zposition Zrotation Xrotation Yrotation 
				JOINT Foot_L
				{
					OFFSET 40.9854 0.0 -1.26872e-05
					CHANNELS 6 Xposition Yposition Zposition Zrotation Xrotation Yrotation 
					JOINT Toes_L
					{
						OFFSET 11.7543 0.0 0.0
						CHANNELS 6 Xposition Yposition Zposition Zrotation Xrotation Yrotation 
						End Site
						{
							OFFSET 0.0 0.0 0.0
						}
					}
				}
			}
		}
		JOINT UpperLeg_R
		{
			OFFSET -2.19251 6.46944 0.0
			CHANNELS 6 Xposition Yposition Zposition Zrotation Xrotation Yrotation 
			JOINT LowerLeg_R
			{
				OFFSET -39.0811 -0.00228153 -0.0401928
				CHANNELS 6 Xposition Yposition Zposition Zrotation Xrotation Yrotation 
				JOINT Foot_R
				{
					OFFSET -40.9854 0.0 0.0
					CHANNELS 6 Xposition Yposition Zposition Zrotation Xrotation Yrotation 
					JOINT Toes_R
					{
						OFFSET -11.7543 0.0 0.0
						CHANNELS 6 Xposition Yposition Zposition Zrotation Xrotation Yrotation 
						End Site
						{
							OFFSET 0.0 0.0 0.0
						}
					}
				}
			}
		}
	}
}
MOTION
Frames:	8
Frame Time:	0.0333333
0.000000 0.000000 0.000000 0.000000 0.000000 -0.000000 -1.141980 92.952600 -1.105890 89.125900 -2.857130 1.466900 15.735700 0.000005 -0.000001 95.050700 86.633600 -94.883100 8.984550 -0.406207 -0.000000 -1.060140 0.579718 0.340450 16.377300 -0.000001 -0.000001 2.470230 -1.915420 2.156950 6.456720 -0.000001 -0.000000 9.026500 -1.075370 -3.773110 12.994200 -0.242716 4.980390 -90.354900 1.077490 -71.767900 5.348090 -0.000007 -0.000001 -67.788200 40.545900 -13.145100 24.328600 0.000019 0.000005 3.896500 9.131280 -23.227800 22.291600 -0.000001 0.000005 3.166630 5.445490 -4.478380 12.994500 -0.242716 -4.980390 87.698900 7.298110 -72.446700 -5.348130 -0.000001 -0.000004 -65.265700 38.539100 -11.367600 -24.328900 0.000322 -0.000009 3.014300 8.797020 -19.005700 -22.291500 -0.000108 -0.000004 9.010830 5.376930 -2.202080 -2.192480 -6.469440 -0.000000 -176.678000 -10.015500 -2.967620 39.081100 -0.000007 -0.000012 -0.065674 0.211942 17.216400 40.985400 -0.000006 -0.000013 -0.463460 3.789120 -62.824500 11.754300 -0.000000 0.000003 -0.000001 -0.000022 -16.578400 -2.192510 6.469440 -0.000001 179.303000 11.677900 179.485000 -39.081100 -0.002282 -0.040193 -0.051668 0.215709 14.304100 -40.985400 0.000008 0.000006 1.132030 6.965460 -62.594500 -11.754300 -0.000006 -0.000006 -0.006215 -0.072778 -19.535200
0.000000 0.000000 0.000000 0.000000 0.000000 -0.000000 -1.134820 92.950500 -1.124420 89.102000 -3.000290 1.484500 15.735700 0.000005 -0.000001 95.378200 86.619100 -95.163500 8.984550 -0.406207 -0.000000 -1.035140 0.617159 0.434845 16.377300 -0.000001 -0.000001 2.389850 -1.941290 2.170390 6.456720 -0.000001 -0.000000 8.931450 -1.112860 -3.989470 12.994200 -0.242716 4.980390 -90.388000 1.172120 -71.682500 5.348090 -0.000007 -0.000001 -67.255700 39.914500 -12.870700 24.328600 0.000019 0.000005 4.775620 9.969000 -25.759000 22.291600 -0.000001 0.000005 2.019140 5.440240 -4.294510 12.994500 -0.242716 -4.980390 87.703400 7.258600 -72.389500 -5.348130 -0.000001 -0.000004 -65.279100 38.390400 -11.378700 -24.328900 0.000322 -0.000009 3.034300 8.852470 -19.012500 -22.291500 -0.000108 -0.000004 9.171150 5.377290 -2.213400 -2.192480 -6.469440 -0.000000 -176.655000 -10.104900 -2.967870 39.081100 -0.000007 -0.000012 -0.064802 0.208510 17.264500 40.985400 -0.000006 -0.000013 -0.464262 3.747510 -62.847100 11.754300 -0.000000 0.000003 -0.000001 -0.000015 -16.578000 -2.192510 6.469440 -0.000001 179.338000 11.501500 179.466000 -39.081100 -0.002282 -0.040193 -0.051199 0.213496 14.328100 -40.985400 0.000008 0.000006 1.136370 6.948450 -62.584600 -11.754300 -0.000006 -0.000006 -0.006251 -0.073097 -19.548200
0.000000 0.000000 0.000000 0.000000 0.000000 -0.000000 -1.124420 92.951200 -1.169020 89.085900 -3.150120 1.475310 15.735700 0.000005 -0.000001 95.513300 86.590200 -95.227800 8.984550 -0.406207 -0.000000 -0.979489 0.633292 0.576299 16.377300 -0.000001 -0.000001 2.270200 -1.892770 2.150280 6.456720 -0.000001 -0.000000 8.703500 -1.094410 -4.314900 12.994200 -0.242716 4.980390 -90.457200 1.366870 -71.504600 5.348090 -0.000007 -0.000001 -66.226700 38.482700 -12.378400 24.328600 0.000019 0.000005 5.407460 9.198150 -30.637500 22.291600 -0.000001 0.000005 0.676431 5.453590 -4.771350 12.994500 -0.242716 -4.980390 87.699900 7.235490 -72.312300 -5.348130 -0.000001 -0.000004 -65.195900 38.183200 -11.485700 -24.328900 0.000322 -0.000009 3.036010 8.840480 -19.046300 -22.291500 -0.000108 -0.000004 9.171480 5.376790 -2.197880 -2.192480 -6.469440 -0.000000 -176.659000 -10.151400 -3.003280 39.081100 -0.000007 -0.000012 -0.065145 0.209209 17.295800 40.985400 -0.000006 -0.000013 -0.467940 3.634820 -62.847600 11.754300 -0.000000 0.000003 -0.000001 -0.000017 -16.578200 -2.192510 6.469440 -0.000001 179.348000 11.435900 179.388000 -39.081100 -0.002282 -0.040193 -0.051573 0.214348 14.367200 -40.985400 0.000008 0.000006 1.141590 7.033400 -62.555400 -11.754300 -0.000006 -0.000006 -0.006588 -0.076086 -19.670200
0.000000 0.000000 0.000000 0.000000 0.000000 -0.000000 -1.120440 92.956900 -1.200920 89.069300 -3.339490 1.480500 15.735700 0.000005 -0.000001 96.155700 86.542700 -95.786900 8.984550 -0.406207 -0.000000 -0.893535 0.713439 0.742800 16.377300 -0.000001 -0.000001 2.097720 -1.783980 2.174710 6.456720 -0.000001 -0.000000 8.483240 -1.021400 -4.748500 12.994200 -0.242716 4.980390 -90.526500 1.541150 -71.137500 5.348090 -0.000007 -0.000001 -64.047800 36.804100 -12.660400 24.328600 0.000019 0.000005 5.189140 6.839370 -37.336300 22.291600 -0.000001 0.000005 -0.288629 5.476240 -5.607860 12.994500 -0.242716 -4.980390 87.704500 7.200410 -72.265300 -5.348130 -0.000001 -0.000004 -65.209100 37.855300 -11.495100 -24.328900 0.000322 -0.000009 3.028080 8.774190 -19.132100 -22.291500 -0.000108 -0.000004 9.126760 5.378610 -2.254660 -2.192480 -6.469440 -0.000000 -176.636000 -10.302100 -2.978960 39.081100 -0.000007 -0.000012 -0.065811 0.211748 17.265000 40.985400 -0.000006 -0.000013 -0.474709 3.608380 -62.824600 11.754300 -0.000000 0.000003 -0.000001 -0.000011 -16.577900 -2.192510 6.469440 -0.000001 179.364000 11.385300 179.370000 -39.081100 -0.002282 -0.040193 -0.051931 0.216226 14.336800 -40.985400 0.000008 0.000006 1.158710 7.144910 -62.502900 -11.754300 -0.000006 -0.000006 -0.006385 -0.074295 -19.597100
0.000000 0.000000 0.000000 0.000000 0.000000 -0.000000 -1.114530 92.968900 -1.264920 89.059800 -3.417750 1.488320 15.735700 0.000005 -0.000001 97.057700 86.495500 -96.615900 8.984550 -0.406207 -0.000000 -0.813097 0.827953 0.888986 16.377300 -0.000001 -0.000001 2.093690 -1.619650 2.087090 6.456720 -0.000001 -0.000000 8.049350 -1.027230 -4.910240 12.994200 -0.242716 4.980390 -90.499600 1.421930 -70.637100 5.348090 -0.000007 -0.000001 -60.827800 34.481200 -14.170100 24.328600 0.000019 0.000005 6.016470 5.868690 -45.862000 22.291600 -0.000001 0.000005 -0.128517 5.499280 -6.501650 12.994500 -0.242716 -4.980390 87.700600 7.190320 -72.213500 -5.348130 -0.000001 -0.000004 -65.290900 37.505000 -11.329000 -24.328900 0.000322 -0.000009 3.064100 8.820260 -19.250300 -22.291500 -0.000108 -0.000004 9.228460 5.376270 -2.181370 -2.192480 -6.469440 -0.000000 -176.656000 -10.213800 -2.974840 39.081100 -0.000007 -0.000012 -0.064269 0.207613 17.200400 40.985400 -0.000006 -0.000013 -0.493335 3.418220 -62.757500 11.754300 -0.000000 0.000003 -0.000001 -0.000022 -16.578300 -2.192510 6.469440 -0.000001 179.376000 11.379200 179.364000 -39.081100 -0.002282 -0.040193 -0.050770 0.212863 14.260300 -40.985400 0.000008 0.000006 1.167270 7.224380 -62.414200 -11.754300 -0.000006 -0.000006 -0.006377 -0.074225 -19.594200
0.000000 0.000000 0.000000 0.000000 0.000000 -0.000000 -1.130400 92.972200 -1.348090 89.061400 -3.385630 1.472940 15.735700 0.000005 -0.000001 97.918300 86.462400 -97.407000 8.984550 -0.406207 -0.000000 -0.762162 0.936454 1.028370 16.377300 -0.000001 -0.000001 2.102650 -1.486050 1.945890 6.456720 -0.000001 -0.000000 7.722510 -1.147850 -4.998890 12.994200 -0.242716 4.980390 -90.371800 1.030680 -70.163800 5.348090 -0.000007 -0.000001 -56.714800 31.164200 -16.908100 24.328600 0.000019 0.000005 7.063200 4.908550 -55.377700 22.291600 -0.000001 0.000005 0.837603 5.513320 -7.078870 12.994500 -0.242716 -4.980390 87.722000 7.127570 -72.224600 -5.348130 -0.000001 -0.000004 -65.493900 37.197100 -11.119200 -24.328900 0.000322 -0.000009 3.110980 9.004750 -19.155600 -22.291500 -0.000108 -0.000004 9.390950 5.376880 -2.200570 -2.192480 -6.469440 -0.000000 -176.642000 -10.246200 -3.070260 39.081100 -0.000007 -0.000012 -0.065562 0.211492 17.223400 40.985400 -0.000006 -0.000013 -0.499490 3.481780 -62.698700 11.754300 -0.000000 0.000003 -0.000001 -0.000022 -16.578300 -2.192510 6.469440 -0.000001 179.406000 11.429200 179.269000 -39.081100 -0.002282 -0.040193 -0.050031 0.209289 14.304100 -40.985400 0.000008 0.000006 1.197000 7.245470 -62.384200 -11.754300 -0.000006 -0.000006 -0.006435 -0.074734 -19.615000
0.000000 0.000000 0.000000 0.000000 0.000000 -0.000000 -1.167190 92.987200 -1.413560 89.097900 -3.209850 1.562680 15.735700 0.000005 -0.000001 98.502900 86.423400 -97.931500 8.984550 -0.406207 -0.000000 -0.696213 1.015270 1.148470 16.377300 -0.000001 -0.000001 2.187880 -1.497630 1.825450 6.456720 -0.000001 -0.000000 7.481140 -1.254990 -5.136210 12.994200 -0.242716 4.980390 -90.205700 0.562493 -69.917300 5.348090 -0.000007 -0.000001 -52.075000 26.247800 -20.604100 24.328600 0.000019 0.000005 6.967570 3.305850 -64.746100 22.291600 -0.000001 0.000005 1.389210 5.512980 -7.065840 12.994500 -0.242716 -4.980390 87.745100 7.043640 -72.198200 -5.348130 -0.000001 -0.000004 -65.599600 37.233600 -10.960500 -24.328900 0.000322 -0.000009 3.098930 9.078650 -18.943600 -22.291500 -0.000108 -0.000004 9.368740 5.375870 -2.169070 -2.192480 -6.469440 -0.000000 -176.649000 -10.187800 -2.970480 39.081100 -0.000007 -0.000012 -0.063060 0.205198 17.082800 40.985400 -0.000006 -0.000013 -0.500211 3.596950 -62.573900 11.754300 -0.000000 0.000003 -0.000001 -0.000013 -16.578000 -2.192510 6.469440 -0.000001 179.382000 11.553800 179.372000 -39.081100 -0.002282 -0.040193 -0.050133 0.210987 14.219500 -40.985400 0.000008 0.000006 1.206290 7.170660 -62.315900 -11.754300 -0.000006 -0.000006 -0.006600 -0.076195 -19.674600
0.000000 0.000000 0.000000 0.000000 0.000000 -0.000000 -1.217630 92.994600 -1.495920 89.080300 -2.913600 1.529230 15.735700 0.000005 -0.000001 98.460400 86.452000 -97.817500 8.984550 -0.406207 -0.000000 -0.752580 0.995994 1.291800 16.377300 -0.000001 -0.000001 2.235550 -1.530880 1.632430 6.456720 -0.000001 -0.000000 7.357880 -1.347380 -5.140060 12.994200 -0.242716 4.980390 -89.995000 -0.013761 -69.831700 5.348090 -0.000007 -0.000001 -47.496400 19.349200 -25.001300 24.328600 0.000019 0.000005 5.951470 1.832230 -72.964900 22.291600 -0.000001 0.000005 1.725730 5.501700 -6.602020 12.994500 -0.242716 -4.980390 87.766400 6.966910 -72.174600 -5.348130 -0.000001 -0.000004 -65.772600 37.146900 -10.771900 -24.328900 0.000322 -0.000009 3.126310 9.306750 -18.667500 -22.291500 -0.000108 -0.000004 9.432160 5.374760 -2.134300 -2.192480 -6.469440 -0.000000 -176.599000 -10.075400 -3.119120 39.081100 -0.000007 -0.000012 -0.063892 0.207682 17.100100 40.985400 -0.000006 -0.000013 -0.508211 3.786460 -62.483100 11.754300 -0.000000 0.000003 -0.000000 -0.000005 -16.577700 -2.192510 6.469440 -0.000001 179.461000 11.766500 179.329000 -39.081100 -0.002282 -0.040193 -0.049290 0.208501 14.164600 -40.985400 0.000008 0.000006 1.235970 7.063690 -62.257700 -11.754300 -0.000006 -0.000006 -0.006605 -0.076236 -19.676300
